<svg width="999" height="661" viewBox="0 0 999 661" fill="none" xmlns="http://www.w3.org/2000/svg">
<g id="ClipYHojaVerdeOscuro">
<rect id="Rectangle 1" y="49.7947" width="973" height="611.205" rx="10" fill="#1E5128"/>
<path id="Vector" d="M868.141 27.5747C858.946 27.6005 850.026 29.3555 841.61 32.8539C833.5 36.2322 826.199 41.025 819.937 47.157C813.691 53.2741 808.758 60.4017 805.306 68.3154C801.748 76.5129 799.916 85.1976 799.886 94.1457L799.789 195.035C799.759 202.104 801.15 208.945 803.93 215.41C806.619 221.636 810.469 227.233 815.403 232.036C820.306 236.81 826.019 240.552 832.389 243.173C838.972 245.884 845.968 247.237 853.193 247.231C860.417 247.226 867.428 245.819 874.026 243.086C880.411 240.444 886.138 236.655 891.056 231.839C895.974 227.023 899.838 221.419 902.541 215.193C905.336 208.728 906.755 201.878 906.77 194.824L906.931 114.724C906.946 109.579 905.906 104.6 903.874 99.9086C901.919 95.3803 899.093 91.317 895.518 87.8375C888.155 80.6699 878.41 76.7899 868.039 76.8636C857.622 76.863 847.831 80.8127 840.454 87.9771C833.078 95.1709 829.016 104.727 829.016 114.898L829.036 164.903C829.037 167.438 830.045 169.791 831.863 171.561C833.681 173.33 836.109 174.323 838.691 174.301L838.905 174.3C844.235 174.3 848.573 170.053 848.588 164.848L848.659 114.813C848.704 104.389 857.379 95.8338 868.025 95.7297C873.173 95.7003 878.015 97.67 881.696 101.254C885.408 104.867 887.456 109.664 887.441 114.749L887.296 194.835C887.296 194.984 887.296 195.103 887.342 195.237C887.22 203.977 883.647 212.189 877.263 218.381C870.833 224.618 862.341 228.072 853.344 228.082C848.808 228.05 844.393 227.153 840.208 225.435C836.16 223.761 832.524 221.355 829.408 218.321C823.023 212.105 819.509 203.883 819.493 195.129C819.508 195.024 819.508 194.935 819.523 194.831L819.529 94.0609C819.529 93.9714 819.514 93.8671 819.499 93.7629C819.559 87.4394 820.857 81.2766 823.392 75.4831C825.866 69.8389 829.378 64.7883 833.838 60.4209C838.298 56.0538 843.506 52.6241 849.264 50.2067C855.252 47.7143 861.59 46.4288 868.112 46.3956C874.65 46.3773 880.989 47.6271 886.977 50.086C892.75 52.4559 897.944 55.8714 902.405 60.2136C906.88 64.5707 910.409 69.6462 912.869 75.3213C915.42 81.1753 916.719 87.4202 916.735 93.8478L916.635 163.389C916.635 165.925 917.628 168.293 919.461 170.077C921.294 171.862 923.723 172.824 926.289 172.817L926.442 172.817C931.757 172.802 936.095 168.554 936.094 163.364L936.179 93.8677C936.178 84.8897 934.39 76.1705 930.846 67.9781C927.424 60.0538 922.505 52.9688 916.242 46.8719C909.994 40.7898 902.708 36.0231 894.612 32.7052C886.226 29.2538 877.321 27.534 868.141 27.5747Z" fill="black"/>
<path id="Vector 1" d="M912.5 99.5894L917.5 188.439H941L937 49.7947H873L912.5 99.5894Z" fill="#1E5128"/>
</g>
</svg>
