<svg width="276" height="269" viewBox="0 0 276 269" fill="none" xmlns="http://www.w3.org/2000/svg">
<g id="Clip">
<path id="Vector" d="M145.141 27.5747C135.946 27.6005 127.026 29.3555 118.61 32.8539C110.5 36.2322 103.199 41.025 96.9372 47.157C90.6906 53.2741 85.7576 60.4017 82.3064 68.3154C78.7482 76.5129 76.9161 85.1976 76.8864 94.1457L76.7889 195.035C76.7591 202.104 78.1497 208.945 80.9302 215.41C83.6191 221.636 87.4687 227.233 92.4028 232.036C97.3063 236.81 103.019 240.552 109.389 243.173C115.972 245.884 122.968 247.237 130.193 247.231C137.417 247.226 144.428 245.819 151.026 243.086C157.411 240.444 163.138 236.655 168.056 231.839C172.974 227.023 176.838 221.419 179.541 215.193C182.336 208.728 183.755 201.878 183.77 194.824L183.931 114.724C183.946 109.579 182.906 104.6 180.874 99.9086C178.919 95.3803 176.093 91.317 172.518 87.8375C165.155 80.6699 155.41 76.7899 145.039 76.8636C134.622 76.863 124.831 80.8127 117.454 87.9771C110.078 95.1709 106.016 104.727 106.016 114.898L106.036 164.903C106.037 167.438 107.045 169.791 108.863 171.561C110.681 173.33 113.109 174.323 115.691 174.301L115.905 174.3C121.235 174.3 125.573 170.053 125.588 164.848L125.659 114.813C125.704 104.389 134.379 95.8338 145.025 95.7297C150.173 95.7003 155.015 97.67 158.696 101.254C162.408 104.867 164.456 109.664 164.441 114.749L164.296 194.835C164.296 194.984 164.296 195.103 164.342 195.237C164.22 203.977 160.647 212.189 154.263 218.381C147.833 224.618 139.341 228.072 130.344 228.082C125.808 228.05 121.393 227.153 117.208 225.435C113.16 223.761 109.524 221.355 106.408 218.321C100.023 212.105 96.5091 203.883 96.4928 195.129C96.5081 195.024 96.5081 194.935 96.5235 194.831L96.5293 94.0609C96.5293 93.9714 96.514 93.8671 96.4986 93.7629C96.5591 87.4394 97.8568 81.2766 100.392 75.4831C102.866 69.8389 106.378 64.7883 110.838 60.4209C115.298 56.0538 120.506 52.6241 126.264 50.2067C132.252 47.7143 138.59 46.4288 145.112 46.3956C151.65 46.3773 157.989 47.6271 163.977 50.086C169.75 52.4559 174.944 55.8714 179.405 60.2136C183.88 64.5707 187.409 69.6462 189.869 75.3213C192.42 81.1753 193.719 87.4202 193.735 93.8478L193.635 163.389C193.635 165.925 194.628 168.293 196.461 170.077C198.294 171.862 200.723 172.824 203.289 172.817L203.442 172.817C208.757 172.802 213.095 168.554 213.094 163.364L213.179 93.8677C213.178 84.8897 211.39 76.1705 207.846 67.9781C204.424 60.0538 199.505 52.9688 193.242 46.8719C186.994 40.7898 179.708 36.0231 171.612 32.7052C163.226 29.2538 154.321 27.534 145.141 27.5747Z" fill="black"/>
<path id="Vector_1" d="M189.5 99.5894L194.5 188.439H218L214 49.7947H150L189.5 99.5894Z" fill="#1E5128"/>
</g>
</svg>
