<?xml version="1.0" standalone="no"?>
<!DOCTYPE svg PUBLIC "-//W3C//DTD SVG 20010904//EN"
 "http://www.w3.org/TR/2001/REC-SVG-20010904/DTD/svg10.dtd">
<svg version="1.0" xmlns="http://www.w3.org/2000/svg"
 width="1280.000000pt" height="640.000000pt" viewBox="0 0 1280.000000 640.000000"
 preserveAspectRatio="xMidYMid meet">
<metadata>
Created by potrace 1.15, written by Peter Selinger 2001-2017
</metadata>
<g transform="translate(0.000000,640.000000) scale(0.100000,-0.100000)"
fill="#000000" stroke="none">
<path d="M4297 5683 c-3 -5 -10 -27 -16 -50 -14 -51 -27 -55 -39 -10 -11 44
-46 45 -50 2 -9 -109 -14 -135 -28 -135 -8 0 -14 3 -14 8 0 4 -11 20 -23 36
-35 43 -48 27 -31 -37 10 -35 18 -142 24 -332 5 -154 8 -281 6 -282 -1 -1 -13
-4 -27 -5 -34 -4 -39 -15 -39 -88 0 -55 6 -78 40 -150 32 -69 40 -96 40 -145
0 -72 -111 -538 -134 -564 -19 -21 -119 -47 -124 -32 -2 6 -39 -15 -83 -45
-96 -68 -161 -94 -232 -94 -53 0 -64 4 -177 68 -83 48 -191 38 -282 -26 -27
-19 -85 -42 -153 -61 -134 -37 -227 -72 -233 -89 -6 -18 45 -15 151 9 122 27
192 22 342 -26 148 -47 186 -78 205 -168 15 -76 37 -91 117 -82 32 4 105 25
162 47 192 72 318 73 540 4 114 -35 178 -50 309 -71 97 -15 249 -83 297 -133
17 -17 48 -71 70 -119 135 -305 312 -613 357 -621 15 -3 17 4 15 45 -2 44 0
48 20 46 l23 -3 -21 53 c-35 88 -35 91 -10 84 44 -11 17 26 -29 41 -61 20 -73
26 -71 37 2 12 47 12 79 1 16 -5 22 -4 22 8 0 25 -54 46 -120 46 -46 0 -64 4
-80 20 -27 27 -78 132 -135 275 -57 146 -71 166 -137 202 -47 25 -79 59 -46
49 57 -18 68 -17 68 8 0 24 2 24 58 19 31 -3 62 -10 69 -15 15 -12 33 -2 33
19 0 8 -9 26 -20 40 -11 14 -20 32 -20 39 0 19 26 18 34 -1 3 -8 13 -15 22
-15 9 0 27 -9 42 -20 l25 -20 22 20 c12 11 27 20 33 20 7 0 12 7 12 15 0 9 7
26 15 39 14 21 14 25 -3 46 -16 20 -21 21 -41 10 -13 -6 -33 -9 -46 -6 -35 9
-84 54 -100 92 -8 19 -25 39 -38 45 -13 6 -32 26 -40 45 -12 24 -23 34 -40 34
-16 0 -28 9 -35 24 -10 22 -8 26 10 32 32 10 107 84 127 124 26 53 18 306 -11
363 -7 13 -5 24 6 36 14 15 14 30 1 146 -8 72 -12 142 -9 157 3 15 -1 39 -10
57 -9 16 -16 44 -16 60 0 22 -7 35 -25 47 -31 20 -31 31 -3 61 20 21 21 27 10
56 -7 19 -12 58 -12 88 0 46 -4 59 -25 79 -18 17 -25 34 -25 62 0 29 -8 47
-33 75 -18 21 -45 59 -60 85 -34 59 -54 79 -72 72 -10 -4 -18 3 -25 20 -16 42
-51 84 -75 90 -14 4 -27 18 -34 36 -10 31 -15 34 -63 44 -18 4 -28 14 -30 29
-5 40 -40 27 -64 -23 -27 -56 -47 -58 -54 -5 -8 55 -28 83 -43 58z m-435
-1827 c-11 -11 -22 -34 -26 -50 -13 -54 -144 -156 -200 -156 -42 0 -86 34 -86
66 0 20 5 24 28 24 58 0 132 31 209 89 76 57 114 71 75 27z"/>
<path d="M931 4594 c-28 -35 -26 -46 8 -66 29 -16 30 -19 34 -110 2 -51 18
-162 35 -247 28 -139 29 -157 16 -182 -8 -15 -14 -41 -14 -56 0 -32 -67 -132
-88 -133 -7 0 -18 -13 -23 -30 -6 -16 -18 -32 -28 -35 -10 -3 -70 21 -142 56
-68 34 -140 64 -160 66 -46 7 -148 -26 -209 -67 -25 -16 -50 -30 -57 -30 -27
0 -277 -89 -291 -104 -15 -15 -14 -16 8 -16 14 0 80 10 148 22 l123 22 142
-28 c78 -16 156 -36 172 -44 56 -27 93 -61 100 -92 8 -38 51 -90 74 -90 34 0
138 60 197 114 33 30 79 64 101 75 49 26 161 51 231 51 45 0 54 -3 62 -22 13
-31 109 -357 127 -435 21 -86 37 -71 30 27 -5 73 3 110 23 110 5 0 19 -33 31
-72 23 -81 33 -98 50 -81 7 7 8 30 1 73 -9 61 -6 110 7 110 4 0 20 -38 35 -85
18 -53 34 -85 43 -85 22 0 26 27 14 87 -15 76 1 91 31 29 39 -80 65 -47 43 54
-6 29 -5 33 6 23 7 -7 23 -13 36 -13 21 0 23 5 23 49 0 32 5 53 16 62 12 10
15 24 11 60 -6 47 9 79 31 65 59 -36 176 -152 248 -245 122 -157 164 -202 231
-247 32 -21 76 -55 98 -74 46 -41 111 -77 121 -68 3 4 -3 20 -15 36 -12 17
-21 33 -21 36 0 12 44 6 59 -8 20 -17 71 -30 71 -17 0 5 -14 23 -32 40 -30 29
-30 31 -10 31 12 0 22 4 22 10 0 15 -73 65 -124 84 -25 10 -46 22 -46 26 0 5
26 17 58 26 69 22 70 23 52 34 -22 14 -65 12 -121 -6 -28 -10 -60 -13 -76 -9
-15 3 -57 39 -97 83 -39 42 -94 99 -122 127 -28 27 -63 67 -78 87 -33 47 -51
57 -150 83 -93 25 -112 44 -75 74 30 26 119 28 204 5 33 -9 86 -18 118 -20 54
-4 57 -3 57 19 0 13 5 28 12 35 18 18 -14 47 -84 72 -39 14 -62 29 -65 41 -3
10 -14 19 -25 19 -15 0 -17 3 -8 19 14 28 14 29 -27 50 -55 27 -75 54 -81 107
-5 44 -12 55 -101 144 -92 94 -176 151 -251 171 -14 4 -74 28 -135 54 -145 62
-257 105 -273 105 -7 0 -23 6 -35 14 -32 20 -179 56 -231 56 -36 0 -48 -5 -65
-26z"/>
<path d="M11884 4288 c-9 -18 -55 -91 -102 -163 -114 -174 -185 -292 -228
-378 -20 -39 -47 -86 -59 -106 -13 -20 -29 -57 -34 -82 -6 -25 -19 -66 -29
-90 -11 -25 -32 -98 -48 -164 l-28 -119 17 -80 c9 -44 14 -82 12 -85 -5 -4
-39 11 -117 50 -20 11 -43 19 -49 19 -7 0 -30 12 -51 26 -21 15 -50 27 -64 27
-34 0 -112 33 -141 59 -15 14 -30 19 -46 14 -14 -3 -33 1 -47 11 -24 17 -146
27 -155 13 -3 -4 2 -13 10 -20 23 -19 18 -28 -17 -26 -22 1 -33 -4 -33 -13 0
-17 15 -26 89 -48 33 -10 62 -25 66 -33 4 -8 17 -35 29 -60 13 -25 29 -76 36
-115 15 -86 48 -157 88 -193 109 -97 156 -147 223 -236 42 -55 83 -116 91
-135 9 -20 26 -61 39 -91 27 -63 42 -160 25 -160 -6 0 -11 -11 -11 -25 0 -14
-2 -25 -5 -25 -15 0 -67 41 -137 106 -100 95 -126 103 -262 77 -15 -3 -45 -21
-67 -40 -29 -26 -64 -42 -149 -68 -130 -40 -200 -70 -200 -84 0 -15 6 -14 144
10 117 22 122 22 215 5 179 -33 201 -47 201 -140 0 -43 6 -67 18 -82 56 -70
187 -79 366 -26 115 34 209 42 249 20 12 -6 45 -34 72 -62 54 -54 147 -109
205 -121 47 -10 247 -119 288 -158 19 -18 44 -50 57 -72 21 -35 114 -247 165
-376 10 -25 32 -68 50 -95 17 -27 37 -71 45 -98 8 -27 22 -56 30 -65 9 -9 25
-28 36 -43 24 -32 45 -38 29 -9 -11 22 -14 91 -3 91 3 0 15 -8 26 -18 20 -16
20 -16 13 3 -5 11 -10 38 -14 59 -4 31 -1 42 14 53 18 14 18 16 -12 41 -45 39
-70 92 -43 92 6 0 31 -14 56 -31 61 -42 80 -25 26 25 -21 19 -44 36 -51 36 -6
0 -37 25 -67 56 -64 64 -137 204 -180 346 -28 93 -26 91 -179 210 -41 32 -116
107 -116 116 0 4 17 28 38 54 22 26 45 60 51 77 7 17 27 36 44 44 18 8 49 22
69 32 44 20 98 78 98 104 0 10 -7 24 -15 31 -14 12 -14 15 0 30 17 18 11 50
-9 50 -7 0 -17 5 -24 12 -9 9 -7 17 10 35 l21 22 -28 36 c-22 30 -32 35 -51
31 -20 -5 -24 -3 -24 18 0 13 -7 29 -15 36 -13 11 -22 8 -55 -19 -41 -33 -87
-41 -96 -17 -3 8 -19 18 -35 21 -38 9 -79 59 -79 97 0 33 -24 73 -77 129 -35
37 -56 97 -47 134 6 23 -27 123 -56 172 -15 26 -20 52 -20 109 l0 75 34 14
c37 16 56 53 56 110 0 27 5 35 31 45 44 19 63 52 55 99 -5 36 -3 42 24 61 25
18 30 28 30 61 0 22 -4 48 -9 58 -7 12 -5 31 4 59 15 43 11 100 -9 117 -6 6
-12 35 -13 65 -2 118 -10 187 -26 222 -10 21 -17 53 -17 71 0 42 -23 66 -45
47 -12 -10 -16 -9 -21 4 -3 9 -4 22 -1 30 3 8 -2 25 -13 38 -10 13 -20 37 -22
53 -4 40 -24 42 -44 3z m244 -2518 c46 -24 214 -175 224 -201 13 -34 -15 -32
-83 6 -35 20 -71 42 -79 49 -8 7 -28 18 -43 24 -42 18 -117 84 -117 102 0 42
41 50 98 20z m284 -302 c37 -66 188 -393 188 -409 0 -18 -30 -8 -45 15 -27 40
-131 278 -151 341 -10 33 -26 72 -37 88 -14 20 -15 27 -5 27 8 0 30 -28 50
-62z"/>
<path d="M6774 4112 c-73 -26 -142 -73 -198 -138 -67 -76 -151 -117 -245 -117
-66 -1 -77 3 -161 56 -28 18 -49 22 -105 21 -75 0 -117 -17 -198 -75 -22 -16
-48 -29 -57 -29 -20 0 -219 -74 -272 -101 -41 -21 -50 -39 -19 -39 10 0 68 11
129 25 61 14 133 25 161 25 61 0 307 -64 341 -88 14 -10 39 -41 57 -68 57 -89
67 -97 123 -89 47 6 50 5 87 -32 21 -22 46 -42 55 -46 16 -5 13 -14 -18 -76
-28 -53 -61 -93 -143 -173 -59 -57 -139 -130 -179 -163 -74 -62 -94 -89 -42
-59 16 10 32 15 35 12 28 -27 -269 -283 -419 -362 -102 -53 -193 -46 -244 19
-30 37 -38 25 -18 -25 19 -47 20 -53 6 -45 -18 11 -30 -5 -19 -23 9 -14 23
-16 80 -14 72 4 75 2 59 -29 -10 -18 -7 -19 40 -19 53 0 64 -12 33 -36 -16
-11 -12 -12 22 -6 65 10 100 8 97 -6 -2 -13 25 -9 76 9 13 5 83 9 155 9 92 0
150 5 187 16 30 9 82 19 115 23 33 4 74 15 92 24 17 9 50 16 72 15 53 -2 111
40 111 81 0 25 3 27 30 23 21 -3 43 4 78 27 27 17 58 31 70 31 11 0 27 8 34
18 7 10 38 30 68 45 67 32 136 89 146 120 4 12 38 54 76 92 114 115 133 135
138 149 3 7 30 34 60 61 30 26 62 61 70 76 8 15 32 58 53 95 32 60 37 77 37
135 0 46 -5 72 -14 82 -23 23 2 52 38 43 39 -10 101 10 140 44 18 17 42 30 53
30 40 0 132 -34 259 -95 255 -123 240 -119 413 -123 152 -4 221 2 221 17 0 15
-80 64 -133 82 -29 10 -52 21 -52 26 0 4 21 13 47 20 25 6 54 16 65 21 17 10
17 11 0 18 -10 3 -29 2 -43 -5 -36 -16 -58 -14 -79 9 -15 16 -15 22 -5 35 11
13 8 15 -17 15 -23 0 -40 -11 -71 -45 -26 -29 -49 -45 -64 -45 -13 0 -57 16
-98 36 -41 20 -101 46 -132 59 -32 13 -85 43 -119 66 -55 39 -59 44 -43 56 10
7 29 13 43 14 28 0 75 17 53 18 -8 1 -12 10 -10 24 2 16 10 22 28 22 14 0 26
5 28 10 1 6 -31 13 -75 17 -85 7 -203 38 -262 67 -129 66 -325 111 -589 136
-195 18 -176 18 -238 -3z m-244 -236 c0 -8 -30 -39 -66 -70 l-66 -57 -37 28
c-64 48 -63 57 6 67 27 3 71 17 98 30 52 24 65 24 65 2z m1398 -235 c66 -32
147 -69 181 -82 33 -13 61 -27 61 -31 0 -15 -41 -7 -115 22 -63 25 -252 115
-264 125 -3 4 8 25 14 25 2 0 58 -26 123 -59z"/>
<path d="M9278 4038 c-34 -27 -26 -70 17 -94 19 -10 36 -23 36 -29 3 -16 9
-153 12 -230 2 -69 2 -70 -24 -73 -15 -2 -81 13 -149 32 -147 43 -207 46 -247
12 l-28 -24 -3 -152 -3 -152 -32 6 c-92 19 -116 18 -184 -5 -37 -13 -74 -32
-81 -41 -20 -27 -60 -45 -179 -79 -59 -17 -128 -43 -153 -57 l-45 -27 32 -3
c18 -2 76 6 130 17 121 26 160 26 265 1 46 -11 100 -20 120 -20 24 0 46 -8 63
-23 l26 -22 -10 -85 c-12 -89 -15 -519 -5 -557 7 -27 19 -29 42 -6 16 16 17
15 22 -18 7 -48 30 -43 59 14 28 57 48 60 56 10 9 -55 22 -83 40 -83 8 0 15 4
15 8 0 5 6 17 14 27 14 19 15 19 34 2 20 -18 21 -18 40 1 12 12 24 41 27 66 4
25 10 46 13 46 3 0 18 -12 34 -27 32 -31 50 -23 70 33 7 20 19 34 32 36 24 3
66 62 66 91 0 10 14 35 30 54 17 18 30 43 30 54 0 12 11 34 24 49 13 16 38 63
56 105 28 68 30 81 19 107 -14 33 0 78 25 78 8 0 52 -14 98 -31 57 -21 122
-35 206 -45 230 -27 311 -75 487 -289 121 -148 180 -198 303 -256 58 -28 118
-60 133 -71 25 -19 69 -18 69 1 0 5 -36 42 -80 84 -85 81 -98 104 -52 93 85
-21 113 -23 110 -8 -2 8 -24 20 -51 27 -26 7 -49 14 -52 16 -2 3 2 18 10 33
26 49 3 57 -83 30 -49 -16 -51 -16 -80 5 -37 26 -143 151 -233 272 -36 49 -77
102 -92 117 -33 35 -28 62 12 62 19 0 34 10 49 30 18 24 28 29 48 24 23 -6 24
-5 14 21 -8 22 -7 31 5 45 21 23 19 30 -8 30 -32 0 -47 18 -47 56 0 18 -11 54
-25 80 l-25 47 20 22 c11 12 20 29 20 39 0 10 -39 57 -87 105 -72 71 -104 95
-177 130 -49 24 -110 56 -134 72 -44 28 -254 119 -367 160 -33 11 -89 32 -125
45 -71 26 -147 31 -172 12z m690 -963 c39 -14 46 -14 72 2 28 16 31 16 93 -11
98 -41 173 -118 400 -409 48 -62 48 -90 0 -46 -32 30 -188 207 -226 257 -16
20 -38 48 -51 62 -12 14 -25 33 -28 41 -4 10 -24 19 -55 23 -69 9 -256 69
-261 84 -5 15 3 15 56 -3z"/>
</g>
</svg>
