<svg width="26" height="24" viewBox="0 0 26 24" fill="none" xmlns="http://www.w3.org/2000/svg">
<g id="logo">
<ellipse id="Ellipse 1" cx="13" cy="12" rx="13" ry="12" fill="white"/>
<g id="Vector 2">
<path d="M10.6667 14.3465C16.2267 18.3738 19.4786 16.9616 19.1115 14.3465C18.7443 11.7314 13.9646 14.3465 10.6667 14.3465Z" stroke="#628048"/>
<path d="M13.2369 11.4045C13.2369 11.4045 9.1981 6.1744 13.2369 6.50128C17.2757 6.82817 13.2369 11.4045 13.2369 11.4045Z" stroke="#628048"/>
<path d="M17.6428 8.13568C22.0488 10.097 25.7204 11.0776 23.1502 8.13568C20.5801 5.19372 17.6428 8.13568 17.6428 8.13568Z" stroke="#628048"/>
</g>
<path id="Vector 1" d="M4 20.1081L19 6.16211" stroke="#628048"/>
<path id="Vector 3" d="M6.99986 16.8649C6.99986 16.8649 9.66649 11.027 6.99986 12.3243C4.33324 13.6216 6.99986 16.8649 6.99986 16.8649Z" stroke="#628048"/>
</g>
</svg>
