<svg width="52" height="43" viewBox="0 0 52 43" fill="none" xmlns="http://www.w3.org/2000/svg">
<rect width="52" height="43" fill="#E5E5E5"/>
<g id="topTrunk" clip-path="url(#clip0_0_1)">
<path id="Vector" d="M5.22059 1.69767L8.89751 2.89685L1.27887 2.86453L1.21485 11.5587L30.7507 11.6839L26.1654 14.1333L34.0217 14.1666L39.5881 11.7214L51.0577 11.7508L51.1218 3.05666L19.9859 2.94388L10.4809 0.266489L5.22059 1.69767Z" fill="#AA8B65"/>
<g id="Group">
<path id="Vector_2" opacity="0.3" d="M19.9862 2.94398L8.89791 2.89694L1.27927 2.86463L1.27007 4.11346L5.23454 4.13027L16.3229 4.1773L38.4681 4.25751C43.4302 4.2755 47.4506 5.40544 47.4405 6.7793L47.4039 11.7416L51.0581 11.7509L51.1221 3.05675L19.9862 2.94398Z" fill="#564531"/>
<path id="Vector_3" opacity="0.41" d="M28.9529 12.646L37.4049 12.6819L39.5916 11.7213L30.7543 11.6838L28.9529 12.646Z" fill="#564531"/>
<path id="Vector_4" opacity="0.4" d="M6.61924 2.15378L8.89752 2.89593L19.9859 2.94388L17.3409 2.19926L6.61924 2.15378Z" fill="#564531"/>
</g>
<path id="Vector_5" d="M9.94257 0.114768L4.68224 1.54593C4.39932 1.62296 4.38181 1.7482 4.64172 1.83304L7.23406 2.67852L1.28043 2.65327C0.858974 2.65148 0.516832 2.74457 0.515973 2.86125L0.451954 11.5554C0.451095 11.6721 0.791844 11.7681 1.2133 11.7699L29.5013 11.8899L25.487 14.0341C25.3654 14.099 25.3755 14.1773 25.5135 14.2407C25.6516 14.304 25.8979 14.3434 26.1637 14.3445L34.0201 14.3778C34.2837 14.3789 34.5289 14.3423 34.6686 14.2809L40.0102 11.9345L51.1504 11.9817C51.5718 11.9835 51.914 11.8904 51.9148 11.7737L51.9788 3.07959C51.9797 2.9629 51.6389 2.86692 51.2175 2.86513L20.3035 2.73401L17.9545 2.07233C17.9543 2.07227 17.9542 2.07224 17.954 2.07218L11.0216 0.119401C10.7241 0.0355954 10.2411 0.0335465 9.94257 0.114768ZM31.2156 11.8971L33.0074 11.9047C32.5966 12.4724 29.6301 13.3931 27.5165 13.9278L27.4147 13.9273L31.2156 11.8971ZM33.5995 13.9536L29.6969 13.937C31.4439 13.4517 34.2046 12.5905 34.5453 11.9113L38.2133 11.9268L33.5995 13.9536ZM19.4453 3.09091C19.5882 3.13111 19.782 3.15417 19.9844 3.15503L50.4517 3.28426L50.446 4.05128L37.0425 3.99443C36.6211 3.99264 36.2789 4.08573 36.2781 4.20242C36.2772 4.3191 36.618 4.41509 37.0394 4.41687L50.4429 4.47373L50.4345 5.61664L31.96 5.53828C31.0484 5.2855 27.6669 4.41274 23.9287 4.26244C23.5111 4.24567 23.1277 4.32561 23.0726 4.4411C23.0166 4.55652 23.3113 4.66375 23.7292 4.68055C27.4735 4.83107 31.0496 5.88054 31.0849 5.89101C31.2286 5.93375 31.4289 5.95848 31.6383 5.95937L50.4314 6.03908L50.4234 7.12475L34.8427 7.05866C34.4212 7.05687 34.0791 7.14996 34.0782 7.26665C34.0773 7.38333 34.4181 7.47932 34.8395 7.48111L50.4203 7.54719L50.4126 8.58705L44.5835 8.56233C44.1621 8.56054 43.8199 8.65363 43.8191 8.77031C43.8182 8.887 44.159 8.98298 44.5804 8.98477L50.4095 9.0095L50.4019 10.0494L37.4296 9.99433C37.0081 9.99254 36.666 10.0856 36.6651 10.2023C36.6642 10.319 37.005 10.415 37.4264 10.4168L50.3988 10.4718L50.3908 11.556L1.97931 11.3507L1.98966 9.94459L14.9639 9.99962C15.3853 10.0014 15.7275 9.90832 15.7283 9.79163C15.7292 9.67495 15.3884 9.57896 14.967 9.57718L1.99277 9.52214L2.00074 8.44079L10.9566 8.47878C12.3446 8.5693 26.8442 9.45804 29.8364 7.32435C29.871 7.29956 29.8876 7.27406 29.8878 7.2489C29.8884 7.16399 29.7027 7.08314 29.3996 7.04957C29.0066 7.0061 28.565 7.05861 28.4131 7.16687C25.8111 9.02238 11.3594 8.07253 11.2137 8.06267C11.158 8.05896 11.1011 8.05691 11.0441 8.05666L2.00385 8.01832L2.0143 6.59854L5.59008 6.61371C6.01153 6.61549 6.35368 6.52241 6.35453 6.40572C6.35539 6.28903 6.01464 6.19305 5.59319 6.19126L2.01741 6.17609L2.03049 4.40005L15.0047 4.45508C15.4262 4.45686 15.7683 4.36378 15.7692 4.24709C15.77 4.1304 15.4293 4.03442 15.0078 4.03263L2.0336 3.9776L2.04022 3.07889L8.89596 3.10797C9.19429 3.10924 9.46563 3.06221 9.59042 2.98766C9.7152 2.9131 9.67062 2.82466 9.47629 2.76128L6.28179 1.71947C7.78822 1.89916 12.2977 2.38777 17.0932 2.42835L19.4453 3.09091ZM15.4795 1.9738C12.0861 1.87133 8.97657 1.56695 7.42826 1.39505L10.4786 0.565131L15.4795 1.9738Z" fill="black"/>
<path id="Vector_6" d="M10.0653 6.0435C9.28176 6.27245 9.45091 6.46705 9.62178 6.56254C10.6408 7.13348 16.2407 7.62257 17.3527 7.71481C17.7577 7.74842 18.1802 7.68507 18.2961 7.57335C18.4117 7.46174 18.1777 7.34383 17.7728 7.31022C15.3176 7.10642 11.6463 6.69141 11.0176 6.39466C11.0955 6.35083 11.4743 6.23143 12.5537 6.08183C15.533 5.66898 20.5519 5.43827 23.4653 5.78561C25.1563 5.9872 26.0837 6.25165 26.0062 6.51092C25.9185 6.8103 24.5903 7.09813 22.7766 7.21089C22.3668 7.2364 22.1138 7.34929 22.2108 7.46319C22.3084 7.57704 22.7197 7.64869 23.1296 7.62321C25.6171 7.46856 27.3842 7.03754 27.527 6.55068C27.5329 6.53106 27.5363 6.51015 27.5364 6.48802C27.5385 6.21051 27.0215 5.7518 24.0528 5.39788C21.3539 5.07613 17.9242 5.20379 16.1201 5.30851C13.4368 5.46433 11.0602 5.75281 10.0653 6.0435Z" fill="black"/>
<path id="Vector_7" d="M24.6147 9.95515C24.2231 9.99682 24.0322 10.1191 24.1878 10.2279C24.3434 10.3369 24.787 10.3914 25.1785 10.3498C25.4436 10.3215 31.6977 9.65146 34.1104 8.99497C36.1281 8.44607 39.8586 8.62319 39.8949 8.62499C40.3103 8.64593 40.7039 8.56984 40.7742 8.45509C40.7814 8.44335 40.7849 8.43167 40.7849 8.42015C40.7857 8.31874 40.5219 8.22818 40.1489 8.20931C39.9647 8.20004 35.6121 7.99022 33.0338 8.69165C30.8426 9.28788 24.6767 9.94851 24.6147 9.95515Z" fill="black"/>
<path id="Vector_8" d="M9.44754 10.664C9.44668 10.7807 9.78743 10.8766 10.2089 10.8784L18.4748 10.9135C18.8963 10.9153 19.2384 10.8222 19.2393 10.7055C19.2402 10.5888 18.8994 10.4928 18.478 10.4911L10.212 10.456C9.79074 10.4542 9.4484 10.5473 9.44754 10.664Z" fill="black"/>
</g>
<g id="midTrunk" clip-path="url(#clip1_0_1)">
<path id="Vector_9" d="M4.78846 16.1644L8.46539 17.3636L0.846747 17.3313L0.782728 26.0254L30.3186 26.1507L25.7333 28.6L33.5896 28.6334L39.156 26.1882L50.6256 26.2176L50.6896 17.5234L19.5538 17.4106L10.0488 14.7332L4.78846 16.1644Z" fill="#AA8B65"/>
<g id="Group_2">
<path id="Vector_10" opacity="0.3" d="M19.5541 17.4107L8.46579 17.3637L0.847148 17.3314L0.837953 18.5802L4.80242 18.597L15.8908 18.6441L38.036 18.7243C42.9981 18.7423 47.0185 19.8722 47.0083 21.2461L46.9718 26.2083L50.626 26.2177L50.6899 17.5235L19.5541 17.4107Z" fill="#564531"/>
<path id="Vector_11" opacity="0.41" d="M28.5208 27.1128L36.9728 27.1486L39.1595 26.188L30.3222 26.1506L28.5208 27.1128Z" fill="#564531"/>
<path id="Vector_12" opacity="0.4" d="M6.18712 16.6205L8.4654 17.3627L19.5538 17.4106L16.9087 16.666L6.18712 16.6205Z" fill="#564531"/>
</g>
<path id="Vector_13" d="M9.51045 14.5815L4.25011 16.0127C3.96719 16.0897 3.94969 16.215 4.2096 16.2998L6.80194 17.1453L0.848307 17.12C0.426853 17.1182 0.0847112 17.2113 0.083852 17.328L0.0198326 26.0222C0.0189734 26.1389 0.359723 26.2349 0.781177 26.2366L29.0692 26.3566L25.0549 28.5008C24.9333 28.5657 24.9434 28.6441 25.0813 28.7074C25.2195 28.7708 25.4658 28.8101 25.7315 28.8112L33.588 28.8446C33.8515 28.8457 34.0968 28.809 34.2364 28.7477L39.5781 26.4012L50.7182 26.4485C51.1397 26.4503 51.4818 26.3572 51.4827 26.2405L51.5467 17.5463C51.5476 17.4297 51.2068 17.3337 50.7854 17.3319L19.8713 17.2008L17.5224 16.5391C17.5222 16.539 17.5221 16.539 17.5219 16.5389L10.5895 14.5862C10.292 14.5023 9.80898 14.5003 9.51045 14.5815ZM30.7834 26.3639L32.5753 26.3715C32.1644 26.9391 29.198 27.8599 27.0843 28.3945L26.9826 28.3941L30.7834 26.3639ZM33.1673 28.4203L29.2648 28.4038C31.0118 27.9185 33.7724 27.0572 34.1132 26.378L37.7812 26.3936L33.1673 28.4203ZM19.0132 17.5577C19.1561 17.5979 19.3499 17.6209 19.5523 17.6218L50.0196 17.751L50.0139 18.518L36.6104 18.4612C36.1889 18.4594 35.8468 18.5525 35.8459 18.6692C35.8451 18.7859 36.1858 18.8818 36.6073 18.8836L50.0108 18.9405L50.0024 20.0834L31.5279 20.005C30.6163 19.7522 27.2348 18.8795 23.4966 18.7292C23.079 18.7124 22.6956 18.7924 22.6405 18.9078C22.5844 19.0233 22.8792 19.1305 23.2971 19.1473C27.0414 19.2978 30.6175 20.3473 30.6528 20.3578C30.7965 20.4005 30.9967 20.4252 31.2062 20.4261L49.9993 20.5058L49.9913 21.5915L34.4105 21.5254C33.9891 21.5236 33.6469 21.6167 33.6461 21.7334C33.6452 21.8501 33.986 21.9461 34.4074 21.9479L49.9882 22.0139L49.9805 23.0538L44.1514 23.0291C43.73 23.0273 43.3878 23.1204 43.387 23.2371C43.3861 23.3538 43.7269 23.4497 44.1483 23.4515L49.9774 23.4762L49.9697 24.5161L36.9974 24.4611C36.576 24.4593 36.2338 24.5524 36.233 24.6691C36.2321 24.7858 36.5729 24.8817 36.9943 24.8835L49.9666 24.9386L49.9587 26.0227L1.54719 25.8174L1.55754 24.4113L14.5318 24.4664C14.9532 24.4682 15.2954 24.3751 15.2962 24.2584C15.2971 24.1417 14.9563 24.0457 14.5349 24.0439L1.56065 23.9889L1.56861 22.9075L10.5245 22.9455C11.9125 23.036 26.4121 23.9248 29.4042 21.7911C29.4389 21.7663 29.4555 21.7408 29.4557 21.7157C29.4563 21.6307 29.2706 21.5499 28.9675 21.5163C28.5745 21.4729 28.1329 21.5254 27.981 21.6336C25.379 23.4891 10.9272 22.5393 10.7816 22.5294C10.7259 22.5257 10.669 22.5237 10.6119 22.5234L1.57173 22.4851L1.58218 21.0653L5.15796 21.0805C5.57941 21.0822 5.92155 20.9892 5.92241 20.8725C5.92327 20.7558 5.58252 20.6598 5.16107 20.658L1.58529 20.6428L1.59837 18.8668L14.5726 18.9218C14.994 18.9236 15.3362 18.8305 15.337 18.7138C15.3379 18.5972 14.9972 18.5012 14.5757 18.4994L1.60148 18.4444L1.6081 17.5456L8.46384 17.5747C8.76217 17.576 9.03351 17.529 9.15829 17.4544C9.28308 17.3799 9.2385 17.2914 9.04417 17.228L5.84967 16.1862C7.3561 16.3659 11.8656 16.8545 16.6611 16.8951L19.0132 17.5577ZM15.0474 16.4406C11.654 16.3381 8.54445 16.0337 6.99614 15.8618L10.0465 15.0319L15.0474 16.4406Z" fill="black"/>
<path id="Vector_14" d="M9.63315 20.5103C8.84964 20.7392 9.01878 20.9338 9.18966 21.0293C10.2087 21.6002 15.8085 22.0893 16.9206 22.1816C17.3256 22.2152 17.748 22.1518 17.864 22.0401C17.9796 21.9285 17.7455 21.8106 17.3407 21.777C14.8855 21.5732 11.2141 21.1582 10.5855 20.8614C10.6634 20.8176 11.0422 20.6982 12.1216 20.5486C15.1009 20.1357 20.1198 19.905 23.0331 20.2524C24.7242 20.454 25.6516 20.7184 25.5741 20.9777C25.4863 21.2771 24.1582 21.5649 22.3445 21.6776C21.9347 21.7031 21.6816 21.816 21.7787 21.9299C21.8763 22.0438 22.2876 22.1154 22.6975 22.09C25.185 21.9353 26.9521 21.5043 27.0949 21.0174C27.1008 20.9978 27.1042 20.9769 27.1043 20.9548C27.1064 20.6773 26.5894 20.2186 23.6207 19.8646C20.9218 19.5429 17.4921 19.6705 15.688 19.7753C13.0047 19.9311 10.6281 20.2196 9.63315 20.5103Z" fill="black"/>
<path id="Vector_15" d="M24.1826 24.4219C23.791 24.4636 23.6001 24.5859 23.7557 24.6947C23.9113 24.8036 24.3549 24.8582 24.7464 24.8165C25.0115 24.7883 31.2656 24.1182 33.6783 23.4617C35.696 22.9128 39.4265 23.0899 39.4627 23.0917C39.8782 23.1127 40.2718 23.0366 40.3421 22.9218C40.3492 22.9101 40.3527 22.8984 40.3528 22.8869C40.3536 22.7855 40.0898 22.6949 39.7168 22.6761C39.5326 22.6668 35.18 22.457 32.6017 23.1584C30.4104 23.7546 24.2446 24.4153 24.1826 24.4219Z" fill="black"/>
<path id="Vector_16" d="M9.01542 25.1307C9.01456 25.2474 9.35531 25.3434 9.77677 25.3452L18.0427 25.3802C18.4642 25.382 18.8063 25.2889 18.8072 25.1723C18.808 25.0556 18.4673 24.9596 18.0458 24.9578L9.77988 24.9227C9.35862 24.921 9.01628 25.014 9.01542 25.1307Z" fill="black"/>
</g>
<g id="bottomTrunk" clip-path="url(#clip2_0_1)">
<path id="Vector_17" d="M4.78846 30.231L8.46539 31.4302L0.846747 31.3978L0.782728 40.092L30.3186 40.2173L25.7333 42.6666L33.5896 42.6999L39.156 40.2547L50.6256 40.2841L50.6896 31.59L19.5538 31.4772L10.0488 28.7998L4.78846 30.231Z" fill="#AA8B65"/>
<g id="Group_3">
<path id="Vector_18" opacity="0.3" d="M19.5541 31.4773L8.46579 31.4303L0.847148 31.3979L0.837953 32.6468L4.80242 32.6636L15.8908 32.7106L38.036 32.7908C42.9981 32.8088 47.0185 33.9388 47.0083 35.3126L46.9718 40.2749L50.626 40.2842L50.6899 31.5901L19.5541 31.4773Z" fill="#564531"/>
<path id="Vector_19" opacity="0.41" d="M28.5208 41.1793L36.9728 41.2152L39.1595 40.2546L30.3222 40.2171L28.5208 41.1793Z" fill="#564531"/>
<path id="Vector_20" opacity="0.4" d="M6.18712 30.6871L8.4654 31.4292L19.5538 31.4772L16.9087 30.7326L6.18712 30.6871Z" fill="#564531"/>
</g>
<path id="Vector_21" d="M9.51045 28.6481L4.25011 30.0792C3.96719 30.1563 3.94969 30.2815 4.2096 30.3664L6.80194 31.2118L0.848307 31.1866C0.426853 31.1848 0.0847112 31.2779 0.083852 31.3946L0.0198326 40.0887C0.0189734 40.2054 0.359723 40.3014 0.781177 40.3032L29.0692 40.4232L25.0549 42.5674C24.9333 42.6323 24.9434 42.7106 25.0813 42.774C25.2195 42.8373 25.4658 42.8767 25.7315 42.8778L33.588 42.9111C33.8515 42.9122 34.0968 42.8756 34.2364 42.8142L39.5781 40.4678L50.7182 40.515C51.1397 40.5168 51.4818 40.4237 51.4827 40.307L51.5467 31.6129C51.5476 31.4962 51.2068 31.4002 50.7854 31.3984L19.8713 31.2673L17.5224 30.6056C17.5222 30.6056 17.5221 30.6056 17.5219 30.6055L10.5895 28.6527C10.292 28.5689 9.80898 28.5669 9.51045 28.6481ZM30.7834 40.4305L32.5753 40.4381C32.1644 41.0057 29.198 41.9264 27.0843 42.4611L26.9826 42.4606L30.7834 40.4305ZM33.1673 42.4869L29.2648 42.4703C31.0118 41.985 33.7724 41.1238 34.1132 40.4446L37.7812 40.4601L33.1673 42.4869ZM19.0132 31.6242C19.1561 31.6644 19.3499 31.6875 19.5523 31.6883L50.0196 31.8176L50.0139 32.5846L36.6104 32.5277C36.1889 32.526 35.8468 32.619 35.8459 32.7357C35.8451 32.8524 36.1858 32.9484 36.6073 32.9502L50.0108 33.007L50.0024 34.1499L31.5279 34.0716C30.6163 33.8188 27.2348 32.9461 23.4966 32.7958C23.079 32.779 22.6956 32.8589 22.6405 32.9744C22.5844 33.0898 22.8792 33.1971 23.2971 33.2139C27.0414 33.3644 30.6175 34.4138 30.6528 34.4243C30.7965 34.4671 30.9967 34.4918 31.2062 34.4927L49.9993 34.5724L49.9913 35.6581L34.4105 35.592C33.9891 35.5902 33.6469 35.6833 33.6461 35.8C33.6452 35.9166 33.986 36.0126 34.4074 36.0144L49.9882 36.0805L49.9805 37.1204L44.1514 37.0956C43.73 37.0938 43.3878 37.1869 43.387 37.3036C43.3861 37.4203 43.7269 37.5163 44.1483 37.5181L49.9774 37.5428L49.9697 38.5827L36.9974 38.5276C36.576 38.5259 36.2338 38.6189 36.233 38.7356C36.2321 38.8523 36.5729 38.9483 36.9943 38.9501L49.9666 39.0051L49.9587 40.0893L1.54719 39.884L1.55754 38.4779L14.5318 38.5329C14.9532 38.5347 15.2954 38.4416 15.2962 38.3249C15.2971 38.2083 14.9563 38.1123 14.5349 38.1105L1.56065 38.0555L1.56861 36.9741L10.5245 37.0121C11.9125 37.1026 26.4121 37.9914 29.4042 35.8577C29.4389 35.8329 29.4555 35.8074 29.4557 35.7822C29.4563 35.6973 29.2706 35.6165 28.9675 35.5829C28.5745 35.5394 28.1329 35.5919 27.981 35.7002C25.379 37.5557 10.9272 36.6058 10.7816 36.596C10.7259 36.5923 10.669 36.5902 10.6119 36.59L1.57173 36.5516L1.58218 35.1318L5.15796 35.147C5.57941 35.1488 5.92155 35.0557 5.92241 34.939C5.92327 34.8223 5.58252 34.7264 5.16107 34.7246L1.58529 34.7094L1.59837 32.9334L14.5726 32.9884C14.994 32.9902 15.3362 32.8971 15.337 32.7804C15.3379 32.6637 14.9972 32.5677 14.5757 32.5659L1.60148 32.5109L1.6081 31.6122L8.46384 31.6413C8.76217 31.6425 9.03351 31.5955 9.15829 31.521C9.28308 31.4464 9.2385 31.358 9.04417 31.2946L5.84967 30.2528C7.3561 30.4325 11.8656 30.9211 16.6611 30.9617L19.0132 31.6242ZM15.0474 30.5071C11.654 30.4046 8.54445 30.1003 6.99614 29.9284L10.0465 29.0984L15.0474 30.5071Z" fill="black"/>
<path id="Vector_22" d="M9.51045 28.6481L4.25011 30.0792C3.96719 30.1563 3.94969 30.2815 4.2096 30.3664L6.80194 31.2118L0.848307 31.1866C0.426853 31.1848 0.0847112 31.2779 0.083852 31.3946L0.0198326 40.0887C0.0189734 40.2054 0.359723 40.3014 0.781177 40.3032L29.0692 40.4232L25.0549 42.5674C24.9333 42.6323 24.9434 42.7106 25.0813 42.774C25.2195 42.8373 25.4658 42.8767 25.7315 42.8778L33.588 42.9111C33.8515 42.9122 34.0968 42.8756 34.2364 42.8142L39.5781 40.4678L50.7182 40.515C51.1397 40.5168 51.4818 40.4237 51.4827 40.307L51.5467 31.6129C51.5476 31.4962 51.2068 31.4002 50.7854 31.3984L19.8713 31.2673L17.5224 30.6056C17.5222 30.6056 17.5221 30.6056 17.5219 30.6055L10.5895 28.6527C10.292 28.5689 9.80898 28.5669 9.51045 28.6481ZM30.7834 40.4305L32.5753 40.4381C32.1644 41.0057 29.198 41.9264 27.0843 42.4611L26.9826 42.4606L30.7834 40.4305ZM33.1673 42.4869L29.2648 42.4703C31.0118 41.985 33.7724 41.1238 34.1132 40.4446L37.7812 40.4601L33.1673 42.4869ZM19.0132 31.6242C19.1561 31.6644 19.3499 31.6875 19.5523 31.6883L50.0196 31.8176L50.0139 32.5846L36.6104 32.5277C36.1889 32.526 35.8468 32.619 35.8459 32.7357C35.8451 32.8524 36.1858 32.9484 36.6073 32.9502L50.0108 33.007L50.0024 34.1499L31.5279 34.0716C30.6163 33.8188 27.2348 32.9461 23.4966 32.7958C23.079 32.779 22.6956 32.8589 22.6405 32.9744C22.5844 33.0898 22.8792 33.1971 23.2971 33.2139C27.0414 33.3644 30.6175 34.4138 30.6528 34.4243C30.7965 34.4671 30.9967 34.4918 31.2062 34.4927L49.9993 34.5724L49.9913 35.6581L34.4105 35.592C33.9891 35.5902 33.6469 35.6833 33.6461 35.8C33.6452 35.9166 33.986 36.0126 34.4074 36.0144L49.9882 36.0805L49.9805 37.1204L44.1514 37.0956C43.73 37.0938 43.3878 37.1869 43.387 37.3036C43.3861 37.4203 43.7269 37.5163 44.1483 37.5181L49.9774 37.5428L49.9697 38.5827L36.9974 38.5276C36.576 38.5259 36.2338 38.6189 36.233 38.7356C36.2321 38.8523 36.5729 38.9483 36.9943 38.9501L49.9666 39.0051L49.9587 40.0893L1.54719 39.884L1.55754 38.4779L14.5318 38.5329C14.9532 38.5347 15.2954 38.4416 15.2962 38.3249C15.2971 38.2083 14.9563 38.1123 14.5349 38.1105L1.56065 38.0555L1.56861 36.9741L10.5245 37.0121C11.9125 37.1026 26.4121 37.9914 29.4042 35.8577C29.4389 35.8329 29.4555 35.8074 29.4557 35.7822C29.4563 35.6973 29.2706 35.6165 28.9675 35.5829C28.5745 35.5394 28.1329 35.5919 27.981 35.7002C25.379 37.5557 10.9272 36.6058 10.7816 36.596C10.7259 36.5923 10.669 36.5902 10.6119 36.59L1.57173 36.5516L1.58218 35.1318L5.15796 35.147C5.57941 35.1488 5.92155 35.0557 5.92241 34.939C5.92327 34.8223 5.58252 34.7264 5.16107 34.7246L1.58529 34.7094L1.59837 32.9334L14.5726 32.9884C14.994 32.9902 15.3362 32.8971 15.337 32.7804C15.3379 32.6637 14.9972 32.5677 14.5757 32.5659L1.60148 32.5109L1.6081 31.6122L8.46384 31.6413C8.76217 31.6425 9.03351 31.5955 9.15829 31.521C9.28308 31.4464 9.2385 31.358 9.04417 31.2946L5.84967 30.2528C7.3561 30.4325 11.8656 30.9211 16.6611 30.9617L19.0132 31.6242ZM15.0474 30.5071C11.654 30.4046 8.54445 30.1003 6.99614 29.9284L10.0465 29.0984L15.0474 30.5071Z" fill="black"/>
<path id="Vector_23" d="M9.63315 34.5768C8.84964 34.8058 9.01878 35.0004 9.18966 35.0958C10.2087 35.6668 15.8085 36.1559 16.9206 36.2481C17.3256 36.2817 17.748 36.2184 17.864 36.1067C17.9796 35.995 17.7455 35.8771 17.3407 35.8435C14.8855 35.6397 11.2141 35.2247 10.5855 34.928C10.6634 34.8841 11.0422 34.7647 12.1216 34.6151C15.1009 34.2023 20.1198 33.9716 23.0331 34.3189C24.7242 34.5205 25.6516 34.785 25.5741 35.0442C25.4863 35.3436 24.1582 35.6314 22.3445 35.7442C21.9347 35.7697 21.6816 35.8826 21.7787 35.9965C21.8763 36.1103 22.2876 36.182 22.6975 36.1565C25.185 36.0019 26.9521 35.5709 27.0949 35.084C27.1008 35.0644 27.1042 35.0435 27.1043 35.0213C27.1064 34.7438 26.5894 34.2851 23.6207 33.9312C20.9218 33.6094 17.4921 33.7371 15.688 33.8418C13.0047 33.9976 10.6281 34.2861 9.63315 34.5768Z" fill="black"/>
<path id="Vector_24" d="M24.1826 38.4885C23.791 38.5301 23.6001 38.6524 23.7557 38.7612C23.9113 38.8702 24.3549 38.9248 24.7464 38.8831C25.0115 38.8548 31.2656 38.1848 33.6783 37.5283C35.696 36.9794 39.4265 37.1565 39.4627 37.1583C39.8782 37.1792 40.2718 37.1031 40.3421 36.9884C40.3492 36.9767 40.3527 36.965 40.3528 36.9535C40.3536 36.8521 40.0898 36.7615 39.7168 36.7426C39.5326 36.7334 35.18 36.5235 32.6017 37.225C30.4104 37.8212 24.2446 38.4818 24.1826 38.4885Z" fill="black"/>
<path id="Vector_25" d="M9.01542 39.1973C9.01456 39.314 9.35531 39.41 9.77677 39.4117L18.0427 39.4468C18.4642 39.4486 18.8063 39.3555 18.8072 39.2388C18.808 39.1221 18.4673 39.0261 18.0458 39.0244L9.77988 38.9893C9.35862 38.9875 9.01628 39.0806 9.01542 39.1973Z" fill="black"/>
</g>
<defs>
<clipPath id="clip0_0_1">
<rect width="14.2488" height="51.4634" fill="white" transform="matrix(0.00736328 -0.999973 0.999991 0.00424151 0.432121 14.2484)"/>
</clipPath>
<clipPath id="clip1_0_1">
<rect width="14.2488" height="51.4634" fill="white" transform="matrix(0.00736328 -0.999973 0.999991 0.00424151 0 28.7152)"/>
</clipPath>
<clipPath id="clip2_0_1">
<rect width="14.2488" height="51.4634" fill="white" transform="matrix(0.00736328 -0.999973 0.999991 0.00424151 0 42.7817)"/>
</clipPath>
</defs>
</svg>
